<mxfile host="app.diagrams.net" modified="2023-04-11T19:19:09.277Z" agent="Mozilla/5.0 (X11; Linux x86_64) AppleWebKit/537.36 (KHTML, like Gecko) Chrome/112.0.0.0 Safari/537.36" version="21.1.6" etag="v7OBTB_waNDM0cgnbXVp" type="github">
  <diagram name="Page-1" id="4yaHBw6DAHhvnLO4MyUZ">
    <mxGraphModel>
      <root>
        <mxCell id="0" />
        <mxCell id="1" parent="0" />
      </root>
    </mxGraphModel>
  </diagram>
</mxfile>
